
                
MORE COOL 720P HD HINDI MOVIES TO GO:
 
http://thepiratebay.org/user/kaushal77 





General

Complete name                    : Lilo & Stitch (2002) 720p HDTV x264 Hindi BY [-=R@J=-] Release
Format                           : Matroska
File size                        : 547 MiB
Duration                         : 1h 20mn
Overall bit rate                 : 953 Kbps
Movie name                       : Lilo & Stitch (2002) 720p HDTV x264 Hindi BY [-=R@J=-] Release -=![kaushal77]!=-

Video
ID                               : 1
Format                           : AVC
Format/Info                      : Advanced Video Codec
Format profile                   : High@L4.1
Format settings, CABAC           : Yes
Format settings, ReFrames        : 5 frames
Muxing mode                      : Header stripping
Codec ID                         : V_MPEG4/ISO/AVC
Duration                         : 1h 20mn
Bit rate                         : 825 Kbps
Width                            : 1 280 pixels
Height                           : 720 pixels
Display aspect ratio             : 16:9
Frame rate                       : 23.976 fps
Color space                      : YUV
Chroma subsampling               : 4:2:0
Bit depth                        : 8 bits
Scan type                        : Progressive
Bits/(Pixel*Frame)               : 0.037
Stream size                      : 462 MiB (85%)
Title                            : [-=R@J=-] RELEASE
Writing library                  : x264 core 60 r900 a9af942
Encoding settings                : cabac=1 / ref=5 / deblock=1:1:2 / analyse=0x3:0x133 / me=umh / subme=7 / brdo=1 / mixed_ref=1 / me_range=32 / chroma_me=1 / trellis=2 / 8x8dct=1 / cqm=0 / deadzone=21,11 / chroma_qp_offset=0 / threads=3 / nr=0 / decimate=1 / mbaff=0 / bframes=3 / b_pyramid=1 / b_adapt=1 / b_bias=0 / direct=3 / wpredb=1 / bime=1 / keyint=250 / keyint_min=25 / scenecut=45(pre) / rc=2pass / bitrate=825 / ratetol=1.0 / rceq='blurCplx^(1-qComp)' / qcomp=0.60 / qpmin=10 / qpmax=51 / qpstep=4 / cplxblur=20.0 / qblur=0.5 / vbv_maxrate=50000 / vbv_bufsize=50000 / ip_ratio=1.40 / pb_ratio=1.30 / aq=0
Language                         : English

Audio:

ID                               : 2
Format                           : MPEG Audio
Format version                   : Version 1
Format profile                   : Layer 3
Mode                             : Joint stereo
Mode extension                   : MS Stereo
Muxing mode                      : Header stripping
Codec ID                         : A_MPEG/L3
Codec ID/Hint                    : MP3
Duration                         : 1h 20mn
Bit rate mode                    : Constant
Bit rate                         : 128 Kbps
Channel(s)                       : 2 channels
Sampling rate                    : 48.0 KHz
Compression mode                 : Lossy
Delay relative to video          : 16ms
Stream size                      : 73.4 MiB (13%)
Title                            : BY [-=R@J=-]
Language                         : Hindi

